%TF.GenerationSoftware,KiCad,Pcbnew,10.0.1*%
%TF.CreationDate,2026-05-05T14:15:23-05:00*%
%TF.ProjectId,etch_a_sketch,65746368-5f61-45f7-936b-657463682e6b,rev?*%
%TF.SameCoordinates,Original*%
%TF.FileFunction,Copper,L1,Top*%
%TF.FilePolarity,Positive*%
%FSLAX46Y46*%
G04 Gerber Fmt 4.6, Leading zero omitted, Abs format (unit mm)*
G04 Created by KiCad (PCBNEW 10.0.1) date 2026-05-05 14:15:23*
%MOMM*%
%LPD*%
G01*
G04 APERTURE LIST*
%TA.AperFunction,ComponentPad*%
%ADD10C,3.100000*%
%TD*%
%TA.AperFunction,ComponentPad*%
%ADD11C,1.600000*%
%TD*%
%TA.AperFunction,SMDPad,CuDef*%
%ADD12R,1.500000X0.600000*%
%TD*%
%TA.AperFunction,ComponentPad*%
%ADD13R,1.600000X1.600000*%
%TD*%
%TA.AperFunction,SMDPad,CuDef*%
%ADD14R,1.000000X0.550000*%
%TD*%
%TA.AperFunction,ComponentPad*%
%ADD15C,0.700000*%
%TD*%
%TA.AperFunction,ComponentPad*%
%ADD16O,2.000000X1.100000*%
%TD*%
%TA.AperFunction,ComponentPad*%
%ADD17O,1.800000X1.200000*%
%TD*%
%TA.AperFunction,SMDPad,CuDef*%
%ADD18R,1.100000X0.550000*%
%TD*%
%TA.AperFunction,SMDPad,CuDef*%
%ADD19R,1.100000X0.300000*%
%TD*%
%TA.AperFunction,ComponentPad*%
%ADD20C,1.700000*%
%TD*%
%TA.AperFunction,ComponentPad*%
%ADD21O,3.000000X3.300000*%
%TD*%
%TA.AperFunction,ComponentPad*%
%ADD22R,1.700000X1.700000*%
%TD*%
%TA.AperFunction,ComponentPad*%
%ADD23O,1.700000X1.700000*%
%TD*%
%TA.AperFunction,ViaPad*%
%ADD24C,0.609600*%
%TD*%
%TA.AperFunction,Conductor*%
%ADD25C,0.381000*%
%TD*%
%TA.AperFunction,Conductor*%
%ADD26C,0.300000*%
%TD*%
%TA.AperFunction,Conductor*%
%ADD27C,0.220000*%
%TD*%
G04 APERTURE END LIST*
D10*
%TO.P,U1,*%
%TO.N,*%
X176130000Y-62500000D03*
X109870000Y-62500000D03*
X176130000Y-99500000D03*
X109870000Y-99500000D03*
D11*
%TO.P,U1,1,GND_1*%
%TO.N,Net-(LED1-K)*%
X177130000Y-69570000D03*
%TO.P,U1,2,VCC_2*%
%TO.N,Net-(R6-Pad2)*%
X177130000Y-72110000D03*
%TO.P,U1,3,SCL_3*%
%TO.N,Net-(U1-SCL)*%
X177130000Y-74650000D03*
%TO.P,U1,4,SDA_4*%
%TO.N,Net-(U2-SPI0.MOSI)*%
X177130000Y-77190000D03*
%TO.P,U1,5,RES_5*%
%TO.N,Net-(U1-RES)*%
X177130000Y-79730000D03*
%TO.P,U1,6,DC_6*%
%TO.N,Net-(U2-GPIO48)*%
X177130000Y-82270000D03*
%TO.P,U1,7,CS_7*%
%TO.N,Net-(U2-SPI0.CS)*%
X177130000Y-84810000D03*
%TO.P,U1,8,LED_8*%
%TO.N,Net-(R6-Pad2)*%
X177130000Y-87350000D03*
%TO.P,U1,9,FS0_9*%
%TO.N,Net-(U1-FS0)*%
X177130000Y-89890000D03*
%TO.P,U1,10,CS_10*%
%TO.N,unconnected-(U1-CS-Pad10)*%
X177130000Y-92430000D03*
%TO.P,U1,11,RST_11*%
%TO.N,unconnected-(U1-RST-Pad11)*%
X108870000Y-69570000D03*
%TO.P,U1,12,DC_12*%
%TO.N,unconnected-(U1-DC-Pad12)*%
X108870000Y-72110000D03*
%TO.P,U1,13,SDA_13*%
%TO.N,unconnected-(U1-SDA-Pad13)*%
X108870000Y-74650000D03*
%TO.P,U1,14,CLK_14*%
%TO.N,unconnected-(U1-CLK-Pad14)*%
X108870000Y-77190000D03*
%TO.P,U1,15,FSO_15*%
%TO.N,unconnected-(U1-FSO-Pad15)*%
X108870000Y-79730000D03*
%TO.P,U1,16,FCS_16*%
%TO.N,unconnected-(U1-FCS-Pad16)*%
X108870000Y-82270000D03*
%TO.P,U1,17,LED_17*%
%TO.N,unconnected-(U1-LED-Pad17)*%
X108870000Y-84810000D03*
%TO.P,U1,18,GND_18*%
%TO.N,Net-(LED1-K)*%
X108870000Y-87350000D03*
%TO.P,U1,19,VCC_19*%
%TO.N,Net-(R6-Pad2)*%
X108870000Y-89890000D03*
%TO.P,U1,20*%
%TO.N,N/C*%
X108870000Y-92430000D03*
%TD*%
D12*
%TO.P,LED2,1,A_1*%
%TO.N,Net-(LED2-A)*%
X188945000Y-94000000D03*
%TO.P,LED2,2,K_2*%
%TO.N,Net-(LED1-K)*%
X191405000Y-94000000D03*
%TD*%
D13*
%TO.P,SW1,1,1_1*%
%TO.N,Net-(U2-GPIO52)*%
X173000000Y-135750000D03*
D11*
%TO.P,SW1,2,2_2*%
%TO.N,unconnected-(SW1-Pad2)*%
X175000000Y-135750000D03*
%TO.P,SW1,3,3_3*%
%TO.N,Net-(LED1-K)*%
X177000000Y-135750000D03*
%TO.P,SW1,4,4_4*%
X173000000Y-140250000D03*
%TO.P,SW1,5,5_5*%
X175000000Y-140250000D03*
%TO.P,SW1,6,6_6*%
%TO.N,unconnected-(SW1-Pad6)*%
X177000000Y-140250000D03*
%TD*%
D12*
%TO.P,LED3,1,K_1*%
%TO.N,Net-(LED1-K)*%
X191405000Y-98500000D03*
%TO.P,LED3,2,A_2*%
%TO.N,Net-(LED3-A)*%
X188945000Y-98500000D03*
%TD*%
D14*
%TO.P,LED1,1,K_1*%
%TO.N,Net-(LED1-K)*%
X191275000Y-101500000D03*
%TO.P,LED1,2,A_2*%
%TO.N,Net-(LED1-A)*%
X189075000Y-101500000D03*
%TD*%
D13*
%TO.P,SW2,1,1_1*%
%TO.N,Net-(U2-GPIO60)*%
X183000000Y-136250000D03*
D11*
%TO.P,SW2,2,2_2*%
%TO.N,unconnected-(SW2-Pad2)*%
X185000000Y-136250000D03*
%TO.P,SW2,3,3_3*%
%TO.N,Net-(LED1-K)*%
X187000000Y-136250000D03*
%TO.P,SW2,4,4_4*%
X183000000Y-140750000D03*
%TO.P,SW2,5,5_5*%
X185000000Y-140750000D03*
%TO.P,SW2,6,6_6*%
%TO.N,unconnected-(SW2-Pad6)*%
X187000000Y-140750000D03*
%TD*%
D15*
%TO.P,USB-C,*%
%TO.N,*%
X102800000Y-90610000D03*
X102800000Y-96390000D03*
D16*
%TO.P,USB-C,13,EH_13*%
%TO.N,Net-(LED1-K)*%
X103330000Y-89180000D03*
D17*
X99120000Y-89180000D03*
D16*
%TO.P,USB-C,14,EH_14*%
X103330000Y-97820000D03*
D17*
X99120000Y-97820000D03*
D18*
%TO.P,USB-C,A1B12,GND_A1B12*%
X103880000Y-90300000D03*
%TO.P,USB-C,A4B9,VBUS_A4B9*%
%TO.N,Net-(U2-USB1.DRVVBUS)*%
X103880000Y-91100000D03*
D19*
%TO.P,USB-C,A5,CC1_A5*%
%TO.N,Net-(USB1-CC1)*%
X103880000Y-92250000D03*
%TO.P,USB-C,A6,Dp1_A6*%
%TO.N,Net-(U2-USB1.D+)*%
X103880000Y-93250000D03*
%TO.P,USB-C,A7,Dn1_A7*%
%TO.N,Net-(U2-USB1.D-)*%
X103880000Y-93750000D03*
%TO.P,USB-C,A8,SBU1_A8*%
%TO.N,unconnected-(USB1-SBU1-PadA8)*%
X103880000Y-94750000D03*
D18*
%TO.P,USB-C,B1A12,GND_B1A12*%
%TO.N,Net-(LED1-K)*%
X103880000Y-96700000D03*
%TO.P,USB-C,B4A9,VBUS_B4A9*%
%TO.N,Net-(U2-USB1.DRVVBUS)*%
X103880000Y-95900000D03*
D19*
%TO.P,USB-C,B5,CC2_B5*%
%TO.N,Net-(USB1-CC2)*%
X103880000Y-95250000D03*
%TO.P,USB-C,B6,Dp2_B6*%
%TO.N,Net-(U2-USB1.D+)*%
X103880000Y-94250000D03*
%TO.P,USB-C,B7,Dn2_B7*%
%TO.N,Net-(U2-USB1.D-)*%
X103880000Y-92750000D03*
%TO.P,USB-C,B8,SBU2_B8*%
%TO.N,unconnected-(USB1-SBU2-PadB8)*%
X103880000Y-91750000D03*
%TD*%
D20*
%TO.P,R2,1,1_1*%
%TO.N,Net-(U2-AIN.VREF-)*%
X163960000Y-110300000D03*
%TO.P,R2,2,2_2*%
%TO.N,Net-(U2-AIN0(1.8V))*%
X166500000Y-110300000D03*
%TO.P,R2,3,3_3*%
%TO.N,Net-(U2-AIN.VREF+)*%
X169040000Y-110300000D03*
D21*
%TO.P,R2,4,EH_4*%
%TO.N,Net-(LED1-K)*%
X171500000Y-107000000D03*
%TO.P,R2,5,EH_5*%
X161500000Y-107000000D03*
%TD*%
D20*
%TO.P,R1,1,1_1*%
%TO.N,Net-(U2-AIN.VREF-)*%
X101460000Y-110000000D03*
%TO.P,R1,2,2_2*%
%TO.N,Net-(U2-AIN1(1.8V))*%
X104000000Y-110000000D03*
%TO.P,R1,3,3_3*%
%TO.N,Net-(U2-AIN.VREF+)*%
X106540000Y-110000000D03*
D21*
%TO.P,R1,4,EH_4*%
%TO.N,Net-(LED1-K)*%
X109000000Y-106700000D03*
%TO.P,R1,5,EH_5*%
X99000000Y-106700000D03*
%TD*%
D22*
%TO.P,U2,1,VIN_1*%
%TO.N,Net-(U2-USB1.DRVVBUS)*%
X156900000Y-140040000D03*
D23*
%TO.P,U2,2,AIN6/GPIO87_2*%
%TO.N,unconnected-(U2-AIN6{slash}GPIO87-Pad2)*%
X156900000Y-137500000D03*
%TO.P,U2,3,USB1.DRVVBUS_3*%
%TO.N,Net-(U2-USB1.DRVVBUS)*%
X154360000Y-140040000D03*
%TO.P,U2,4,GPIO89_4*%
%TO.N,unconnected-(U2-GPIO89-Pad4)*%
X154360000Y-137500000D03*
%TO.P,U2,5,USB1.VBUS_5*%
%TO.N,Net-(U2-USB1.DRVVBUS)*%
X151820000Y-140040000D03*
%TO.P,U2,6,SPI0.CS_6*%
%TO.N,Net-(U2-SPI0.CS)*%
X151820000Y-137500000D03*
%TO.P,U2,7,USB1.VIN_7*%
%TO.N,Net-(U2-USB1.DRVVBUS)*%
X149280000Y-140040000D03*
%TO.P,U2,8,SPI0.CLK_8*%
%TO.N,Net-(U1-SCL)*%
X149280000Y-137500000D03*
%TO.P,U2,9,USB1.D-_9*%
%TO.N,Net-(U2-USB1.D-)*%
X146740000Y-140040000D03*
%TO.P,U2,10,SPI0.MISO_10*%
%TO.N,Net-(U1-FS0)*%
X146740000Y-137500000D03*
%TO.P,U2,11,USB1.D+_11*%
%TO.N,Net-(U2-USB1.D+)*%
X144200000Y-140040000D03*
%TO.P,U2,12,SPI0.MOSI_12*%
%TO.N,Net-(U2-SPI0.MOSI)*%
X144200000Y-137500000D03*
%TO.P,U2,13,USB1.ID_13*%
%TO.N,Net-(LED1-K)*%
X141660000Y-140040000D03*
%TO.P,U2,14,3.3V_14*%
%TO.N,Net-(R6-Pad2)*%
X141660000Y-137500000D03*
%TO.P,U2,15,GND_15*%
%TO.N,Net-(LED1-K)*%
X139120000Y-140040000D03*
%TO.P,U2,16,GND_16*%
X139120000Y-137500000D03*
%TO.P,U2,17,AIN.VREF-_17*%
%TO.N,Net-(U2-AIN.VREF-)*%
X136580000Y-140040000D03*
%TO.P,U2,18,AIN.VREF+_18*%
%TO.N,Net-(U2-AIN.VREF+)*%
X136580000Y-137500000D03*
%TO.P,U2,19,AIN0(1.8V)_19*%
%TO.N,Net-(U2-AIN0(1.8V))*%
X134040000Y-140040000D03*
%TO.P,U2,20,GPIO20_20*%
%TO.N,unconnected-(U2-GPIO20-Pad20)*%
X134040000Y-137500000D03*
%TO.P,U2,21,AIN1(1.8V)_21*%
%TO.N,Net-(U2-AIN1(1.8V))*%
X131500000Y-140040000D03*
%TO.P,U2,22,GND_22*%
%TO.N,Net-(LED1-K)*%
X131500000Y-137500000D03*
%TO.P,U2,23,AIN2(1.8V)_23*%
%TO.N,unconnected-(U2-AIN2(1.8V)-Pad23)*%
X128960000Y-140040000D03*
%TO.P,U2,24,VOUT_24*%
%TO.N,unconnected-(U2-VOUT-Pad24)*%
X128960000Y-137500000D03*
%TO.P,U2,25,AIN3(1.8V)_25*%
%TO.N,unconnected-(U2-AIN3(1.8V)-Pad25)*%
X126420000Y-140040000D03*
%TO.P,U2,26,I2C2.SDA_26*%
%TO.N,unconnected-(U2-I2C2.SDA-Pad26)*%
X126420000Y-137500000D03*
%TO.P,U2,27,AIN4(1.8V)_27*%
%TO.N,unconnected-(U2-AIN4(1.8V)-Pad27)*%
X123880000Y-140040000D03*
%TO.P,U2,28,I2C2.SCL_28*%
%TO.N,unconnected-(U2-I2C2.SCL-Pad28)*%
X123880000Y-137500000D03*
%TO.P,U2,29,PRU0.7_29*%
%TO.N,unconnected-(U2-PRU0.7-Pad29)*%
X121340000Y-140040000D03*
%TO.P,U2,30,UART0.TX_30*%
%TO.N,unconnected-(U2-UART0.TX-Pad30)*%
X121340000Y-137500000D03*
%TO.P,U2,31,PRU0.4_31*%
%TO.N,unconnected-(U2-PRU0.4-Pad31)*%
X118800000Y-140040000D03*
%TO.P,U2,32,UART0.RX_32*%
%TO.N,unconnected-(U2-UART0.RX-Pad32)*%
X118800000Y-137500000D03*
%TO.P,U2,33,PRU0.1_33*%
%TO.N,unconnected-(U2-PRU0.1-Pad33)*%
X116260000Y-140040000D03*
%TO.P,U2,34,GPIO26_34*%
%TO.N,unconnected-(U2-GPIO26-Pad34)*%
X116260000Y-137500000D03*
%TO.P,U2,35,PRU1.10_35*%
%TO.N,unconnected-(U2-PRU1.10-Pad35)*%
X113720000Y-140040000D03*
%TO.P,U2,36,PWM0A_36*%
%TO.N,unconnected-(U2-PWM0A-Pad36)*%
X113720000Y-137500000D03*
D20*
%TO.P,U2,37,PWM1A_37*%
%TO.N,unconnected-(U2-PWM1A-Pad37)*%
X156900000Y-114640000D03*
D23*
%TO.P,U2,38,GPIO59_38*%
%TO.N,Net-(U2-GPIO59)*%
X156900000Y-112100000D03*
%TO.P,U2,39,GPIO23_39*%
%TO.N,unconnected-(U2-GPIO23-Pad39)*%
X154360000Y-114640000D03*
%TO.P,U2,40,GPIO58_40*%
%TO.N,unconnected-(U2-GPIO58-Pad40)*%
X154360000Y-112100000D03*
%TO.P,U2,41,UART4.RX_41*%
%TO.N,unconnected-(U2-UART4.RX-Pad41)*%
X151820000Y-114640000D03*
%TO.P,U2,42,GPIO57_42*%
%TO.N,Net-(U1-RES)*%
X151820000Y-112100000D03*
%TO.P,U2,43,UART4.TX_43*%
%TO.N,unconnected-(U2-UART4.TX-Pad43)*%
X149280000Y-114640000D03*
%TO.P,U2,44,GPIO60_44*%
%TO.N,Net-(U2-GPIO60)*%
X149280000Y-112100000D03*
%TO.P,U2,45,I2C1.SCL_45*%
%TO.N,unconnected-(U2-I2C1.SCL-Pad45)*%
X146740000Y-114640000D03*
%TO.P,U2,46,GPIO52_46*%
%TO.N,Net-(U2-GPIO52)*%
X146740000Y-112100000D03*
%TO.P,U2,47,I2C1.SDA_47*%
%TO.N,unconnected-(U2-I2C1.SDA-Pad47)*%
X144200000Y-114640000D03*
%TO.P,U2,48,PWR.BTN_48*%
%TO.N,unconnected-(U2-PWR.BTN-Pad48)*%
X144200000Y-112100000D03*
%TO.P,U2,49,VOUT_49*%
%TO.N,unconnected-(U2-VOUT-Pad49)*%
X141660000Y-114640000D03*
%TO.P,U2,50,BAT.VIN_50*%
%TO.N,unconnected-(U2-BAT.VIN-Pad50)*%
X141660000Y-112100000D03*
%TO.P,U2,51,GND_51*%
%TO.N,Net-(LED1-K)*%
X139120000Y-114640000D03*
%TO.P,U2,52,BAT.TEMP_52*%
%TO.N,unconnected-(U2-BAT.TEMP-Pad52)*%
X139120000Y-112100000D03*
%TO.P,U2,53,GPIO65_53*%
%TO.N,unconnected-(U2-GPIO65-Pad53)*%
X136580000Y-114640000D03*
%TO.P,U2,54,GPIO47_54*%
%TO.N,Net-(U2-GPIO47)*%
X136580000Y-112100000D03*
%TO.P,U2,55,GPIO27_55*%
%TO.N,unconnected-(U2-GPIO27-Pad55)*%
X134040000Y-114640000D03*
%TO.P,U2,56,GPIO64_56*%
%TO.N,Net-(U2-GPIO64)*%
X134040000Y-112100000D03*
%TO.P,U2,57,GND_57*%
%TO.N,Net-(LED1-K)*%
X131500000Y-114640000D03*
%TO.P,U2,58,GPIO46_58*%
%TO.N,unconnected-(U2-GPIO46-Pad58)*%
X131500000Y-112100000D03*
%TO.P,U2,59,3.3V_59*%
%TO.N,Net-(R6-Pad2)*%
X128960000Y-114640000D03*
%TO.P,U2,60,GPIO48_60*%
%TO.N,Net-(U2-GPIO48)*%
X128960000Y-112100000D03*
%TO.P,U2,61,SPI1.MOSI_61*%
%TO.N,unconnected-(U2-SPI1.MOSI-Pad61)*%
X126420000Y-114640000D03*
%TO.P,U2,62,~{RESET}_62*%
%TO.N,unconnected-(U2-~{RESET}-Pad62)*%
X126420000Y-112100000D03*
%TO.P,U2,63,SPI1.MISO_63*%
%TO.N,unconnected-(U2-SPI1.MISO-Pad63)*%
X123880000Y-114640000D03*
%TO.P,U2,64,PRU0.6_64*%
%TO.N,unconnected-(U2-PRU0.6-Pad64)*%
X123880000Y-112100000D03*
%TO.P,U2,65,SPI1.CLK_65*%
%TO.N,unconnected-(U2-SPI1.CLK-Pad65)*%
X121340000Y-114640000D03*
%TO.P,U2,66,PRU0.3_66*%
%TO.N,unconnected-(U2-PRU0.3-Pad66)*%
X121340000Y-112100000D03*
%TO.P,U2,67,SPI1.CS_67*%
%TO.N,unconnected-(U2-SPI1.CS-Pad67)*%
X118800000Y-114640000D03*
%TO.P,U2,68,PRU0.2_68*%
%TO.N,unconnected-(U2-PRU0.2-Pad68)*%
X118800000Y-112100000D03*
%TO.P,U2,69,GPIO45_69*%
%TO.N,unconnected-(U2-GPIO45-Pad69)*%
X116260000Y-114640000D03*
%TO.P,U2,70,PRU0.5_70*%
%TO.N,unconnected-(U2-PRU0.5-Pad70)*%
X116260000Y-112100000D03*
%TO.P,U2,71,AIN5(3.3V)_71*%
%TO.N,unconnected-(U2-AIN5(3.3V)-Pad71)*%
X113720000Y-114640000D03*
%TO.P,U2,72,AIN7(1.8V)_72*%
%TO.N,unconnected-(U2-AIN7(1.8V)-Pad72)*%
X113720000Y-112100000D03*
%TD*%
D24*
%TO.N,Net-(LED2-A)*%
X184787100Y-97955900D03*
%TO.N,Net-(U2-GPIO52)*%
X174842300Y-111348900D03*
%TO.N,Net-(LED3-A)*%
X180041500Y-93978000D03*
%TO.N,Net-(LED1-A)*%
X182595000Y-110605400D03*
%TO.N,Net-(U2-GPIO60)*%
X176992900Y-111085900D03*
%TO.N,Net-(U2-USB1.DRVVBUS)*%
X139702200Y-131594100D03*
%TO.N,Net-(USB1-CC1)*%
X102822300Y-91999900D03*
%TO.N,Net-(USB1-CC2)*%
X102824400Y-95206600D03*
%TD*%
%TO.N,Net-(LED1-K)*%
D25*
X99120000Y-97820000D02*
X103330000Y-97820000D01*
X139120000Y-114640000D02*
X140321700Y-114640000D01*
X191405000Y-100743300D02*
X191405000Y-98500000D01*
X140321700Y-114266500D02*
X140321700Y-114640000D01*
X104781700Y-90300000D02*
X104781700Y-89280000D01*
X178000000Y-135750000D02*
X177000000Y-135750000D01*
X104781700Y-89280000D02*
X106711700Y-87350000D01*
X191405000Y-83845000D02*
X177130000Y-69570000D01*
X191405000Y-98500000D02*
X191405000Y-94000000D01*
X185000000Y-140750000D02*
X183000000Y-140750000D01*
X185000000Y-140750000D02*
X187000000Y-138750000D01*
X139120000Y-114640000D02*
X137918300Y-114640000D01*
X104781700Y-96700000D02*
X104781700Y-97720000D01*
X191275000Y-101500000D02*
X191275000Y-100873300D01*
X132701700Y-114640000D02*
X132701700Y-114264500D01*
X103330000Y-89180000D02*
X104681700Y-89180000D01*
X103880000Y-90300000D02*
X104781700Y-90300000D01*
X191405000Y-94000000D02*
X191405000Y-83845000D01*
X183000000Y-140750000D02*
X178000000Y-135750000D01*
X155630000Y-111018300D02*
X155630000Y-112582500D01*
X191275000Y-131975000D02*
X187000000Y-136250000D01*
X131500000Y-114640000D02*
X132701700Y-114640000D01*
X103330000Y-97820000D02*
X104681700Y-97820000D01*
X191275000Y-100873300D02*
X191405000Y-100743300D01*
X139120000Y-140040000D02*
X141660000Y-140040000D01*
X104781700Y-97720000D02*
X104681700Y-97820000D01*
X155630000Y-112582500D02*
X154842500Y-113370000D01*
X161500000Y-107000000D02*
X159648300Y-107000000D01*
X154842500Y-113370000D02*
X141218200Y-113370000D01*
X106711700Y-87350000D02*
X108870000Y-87350000D01*
X159648300Y-107000000D02*
X155630000Y-111018300D01*
X137077700Y-113425900D02*
X137918300Y-114266500D01*
X187000000Y-138750000D02*
X187000000Y-136250000D01*
X137918300Y-114266500D02*
X137918300Y-114640000D01*
X141218200Y-113370000D02*
X140321700Y-114266500D01*
X191275000Y-101500000D02*
X191275000Y-131975000D01*
X104781700Y-89280000D02*
X104681700Y-89180000D01*
X103880000Y-96700000D02*
X104781700Y-96700000D01*
X132701700Y-114264500D02*
X133540300Y-113425900D01*
X175000000Y-140250000D02*
X173000000Y-140250000D01*
X133540300Y-113425900D02*
X137077700Y-113425900D01*
%TO.N,Net-(R6-Pad2)*%
D26*
X128960000Y-113438300D02*
X128584400Y-113438300D01*
X128584400Y-113438300D02*
X127758300Y-112612200D01*
X127758300Y-108778300D02*
X108870000Y-89890000D01*
X127758300Y-112612200D02*
X127758300Y-108778300D01*
X128960000Y-114640000D02*
X128960000Y-113438300D01*
%TO.N,Net-(U1-SCL)*%
X179353900Y-76873900D02*
X179353900Y-105915800D01*
X179353900Y-105915800D02*
X149280000Y-135989700D01*
X149280000Y-137500000D02*
X149280000Y-136298300D01*
X149280000Y-135989700D02*
X149280000Y-136298300D01*
X177130000Y-74650000D02*
X179353900Y-76873900D01*
%TO.N,Net-(U2-SPI0.MOSI)*%
X144200000Y-137500000D02*
X144200000Y-136298300D01*
X145026200Y-136298300D02*
X144200000Y-136298300D01*
X178841600Y-102482900D02*
X145026200Y-136298300D01*
X178841600Y-78901600D02*
X178841600Y-102482900D01*
X177130000Y-77190000D02*
X178841600Y-78901600D01*
%TO.N,Net-(U1-RES)*%
X151820000Y-112100000D02*
X151820000Y-108421300D01*
X151820000Y-108421300D02*
X176701300Y-83540000D01*
X178338100Y-82752600D02*
X178338100Y-80938100D01*
X177550700Y-83540000D02*
X178338100Y-82752600D01*
X178338100Y-80938100D02*
X177130000Y-79730000D01*
X176701300Y-83540000D02*
X177550700Y-83540000D01*
%TO.N,Net-(U2-GPIO48)*%
X128960000Y-112100000D02*
X130161700Y-112100000D01*
X130161700Y-111724500D02*
X159616200Y-82270000D01*
X159616200Y-82270000D02*
X177130000Y-82270000D01*
X130161700Y-112100000D02*
X130161700Y-111724500D01*
%TO.N,Net-(LED2-A)*%
X187843300Y-94899700D02*
X187843300Y-94000000D01*
X188945000Y-94000000D02*
X187843300Y-94000000D01*
X184787100Y-97955900D02*
X187843300Y-94899700D01*
%TO.N,Net-(U2-GPIO52)*%
X174842300Y-132756000D02*
X173000000Y-134598300D01*
X173000000Y-135750000D02*
X173000000Y-134598300D01*
X174842300Y-111348900D02*
X174842300Y-132756000D01*
%TO.N,Net-(LED3-A)*%
X180041600Y-93978000D02*
X180041500Y-93978000D01*
X184517300Y-98607600D02*
X180041600Y-94131900D01*
X180041600Y-94131900D02*
X180041600Y-93978000D01*
X188945000Y-98500000D02*
X187843300Y-98500000D01*
X187843300Y-98500000D02*
X187735700Y-98607600D01*
X187735700Y-98607600D02*
X184517300Y-98607600D01*
%TO.N,Net-(LED1-A)*%
X189075000Y-104125400D02*
X182595000Y-110605400D01*
X189075000Y-101500000D02*
X189075000Y-104125400D01*
%TO.N,Net-(U2-GPIO60)*%
X183000000Y-136250000D02*
X183000000Y-117093000D01*
X183000000Y-117093000D02*
X176992900Y-111085900D01*
%TO.N,Net-(U2-USB1.DRVVBUS)*%
D25*
X109403600Y-102036200D02*
X106072600Y-98705200D01*
X105175900Y-91534200D02*
X104741700Y-91100000D01*
X105175900Y-95465800D02*
X105175900Y-91534200D01*
X104741700Y-95900000D02*
X105175900Y-95465800D01*
X139702200Y-131594100D02*
X139173400Y-131594100D01*
D26*
X151820000Y-140040000D02*
X154360000Y-140040000D01*
D25*
X106072600Y-98705200D02*
X106072600Y-97230900D01*
X122610000Y-111721500D02*
X112924700Y-102036200D01*
X139173400Y-131594100D02*
X122610000Y-115030700D01*
D26*
X149280000Y-140040000D02*
X151820000Y-140040000D01*
D25*
X112924700Y-102036200D02*
X109403600Y-102036200D01*
X103880000Y-95900000D02*
X104741700Y-95900000D01*
X122610000Y-115030700D02*
X122610000Y-111721500D01*
X103880000Y-91100000D02*
X104741700Y-91100000D01*
X106072600Y-97230900D02*
X104741700Y-95900000D01*
D26*
X154360000Y-140040000D02*
X156900000Y-140040000D01*
%TO.N,Net-(USB1-CC1)*%
D27*
X103018300Y-92195900D02*
X102822300Y-91999900D01*
X103018300Y-92250000D02*
X103018300Y-92195900D01*
X103880000Y-92250000D02*
X103018300Y-92250000D01*
%TO.N,Net-(U2-USB1.D+)*%
X104741700Y-94250000D02*
X104741700Y-93250000D01*
X144200000Y-140040000D02*
X143038300Y-140040000D01*
X132810000Y-140488700D02*
X132810000Y-136975100D01*
X110278700Y-111830100D02*
X97894400Y-99445800D01*
X134078800Y-141757500D02*
X132810000Y-140488700D01*
X143038300Y-140330400D02*
X141611200Y-141757500D01*
X110278700Y-114443800D02*
X110278700Y-111830100D01*
X132810000Y-136975100D02*
X110278700Y-114443800D01*
X103880000Y-94250000D02*
X104741700Y-94250000D01*
X141611200Y-141757500D02*
X134078800Y-141757500D01*
X97894400Y-99445800D02*
X97894400Y-97439900D01*
X143038300Y-140040000D02*
X143038300Y-140330400D01*
X103880000Y-93250000D02*
X104741700Y-93250000D01*
X97894400Y-97439900D02*
X101084300Y-94250000D01*
X101084300Y-94250000D02*
X103880000Y-94250000D01*
%TO.N,Net-(U2-USB1.D-)*%
X103018300Y-92750000D02*
X103018300Y-93750000D01*
X100935500Y-93750000D02*
X103018300Y-93750000D01*
X103880000Y-92750000D02*
X103018300Y-92750000D01*
X102730000Y-105272800D02*
X97438100Y-99980900D01*
X128536700Y-138770000D02*
X127690000Y-137923300D01*
X145578300Y-140330400D02*
X143718400Y-142190300D01*
X131943900Y-142190300D02*
X130258500Y-140504900D01*
X143718400Y-142190300D02*
X131943900Y-142190300D01*
X102730000Y-112083200D02*
X102730000Y-105272800D01*
X146740000Y-140040000D02*
X145578300Y-140040000D01*
X130258500Y-139674400D02*
X129354100Y-138770000D01*
X127690000Y-137923300D02*
X127690000Y-137043200D01*
X97438100Y-99980900D02*
X97438100Y-97247400D01*
X145578300Y-140040000D02*
X145578300Y-140330400D01*
X97438100Y-97247400D02*
X100935500Y-93750000D01*
X127690000Y-137043200D02*
X102730000Y-112083200D01*
X103018300Y-93750000D02*
X103880000Y-93750000D01*
X130258500Y-140504900D02*
X130258500Y-139674400D01*
X129354100Y-138770000D02*
X128536700Y-138770000D01*
%TO.N,Net-(USB1-CC2)*%
X103880000Y-95250000D02*
X102867800Y-95250000D01*
X102867800Y-95250000D02*
X102824400Y-95206600D01*
%TO.N,Net-(U2-AIN.VREF-)*%
D26*
X136580000Y-140040000D02*
X136580000Y-138838300D01*
X135365900Y-137999700D02*
X135365900Y-136960400D01*
X135365900Y-136960400D02*
X139596100Y-132730200D01*
X136204500Y-138838300D02*
X135365900Y-137999700D01*
X139596100Y-132730200D02*
X141529800Y-132730200D01*
X136580000Y-138838300D02*
X136204500Y-138838300D01*
X141529800Y-132730200D02*
X163960000Y-110300000D01*
%TO.N,Net-(U2-AIN0(1.8V))*%
X138587500Y-138770000D02*
X137890900Y-139466600D01*
X137890900Y-140511200D02*
X137160400Y-141241700D01*
X142930000Y-133870000D02*
X142930000Y-137943300D01*
X137160400Y-141241700D02*
X136067800Y-141241700D01*
X142930000Y-137943300D02*
X142103300Y-138770000D01*
X136067800Y-141241700D02*
X135241700Y-140415600D01*
X166500000Y-110300000D02*
X142930000Y-133870000D01*
X142103300Y-138770000D02*
X138587500Y-138770000D01*
X137890900Y-139466600D02*
X137890900Y-140511200D01*
X135241700Y-140415600D02*
X135241700Y-140040000D01*
X134040000Y-140040000D02*
X135241700Y-140040000D01*
%TO.N,Net-(U2-AIN.VREF+)*%
X137781700Y-137500000D02*
X137781700Y-137124400D01*
X165230000Y-109793900D02*
X165970300Y-109053600D01*
X167793600Y-109053600D02*
X169040000Y-110300000D01*
X139661200Y-136298300D02*
X165230000Y-110729500D01*
X165230000Y-110729500D02*
X165230000Y-109793900D01*
X137781700Y-137124400D02*
X138607800Y-136298300D01*
X136580000Y-137500000D02*
X137781700Y-137500000D01*
X138607800Y-136298300D02*
X139661200Y-136298300D01*
X165970300Y-109053600D02*
X167793600Y-109053600D01*
%TO.N,Net-(U2-AIN1(1.8V))*%
X131124400Y-138838300D02*
X130298300Y-138012200D01*
X131500000Y-140040000D02*
X131500000Y-138838300D01*
X130298300Y-136298300D02*
X104000000Y-110000000D01*
X131500000Y-138838300D02*
X131124400Y-138838300D01*
X130298300Y-138012200D02*
X130298300Y-136298300D01*
%TD*%
M02*
