%TF.GenerationSoftware,KiCad,Pcbnew,10.0.1*%
%TF.CreationDate,2026-05-05T14:15:23-05:00*%
%TF.ProjectId,etch_a_sketch,65746368-5f61-45f7-936b-657463682e6b,rev?*%
%TF.SameCoordinates,Original*%
%TF.FileFunction,Legend,Top*%
%TF.FilePolarity,Positive*%
%FSLAX46Y46*%
G04 Gerber Fmt 4.6, Leading zero omitted, Abs format (unit mm)*
G04 Created by KiCad (PCBNEW 10.0.1) date 2026-05-05 14:15:23*
%MOMM*%
%LPD*%
G01*
G04 APERTURE LIST*
%ADD10C,0.150000*%
%ADD11C,0.100000*%
%ADD12C,0.250000*%
%ADD13C,0.060000*%
%ADD14C,0.000000*%
G04 APERTURE END LIST*
D10*
X173047618Y-143704819D02*
X172714285Y-143228628D01*
X172476190Y-143704819D02*
X172476190Y-142704819D01*
X172476190Y-142704819D02*
X172857142Y-142704819D01*
X172857142Y-142704819D02*
X172952380Y-142752438D01*
X172952380Y-142752438D02*
X172999999Y-142800057D01*
X172999999Y-142800057D02*
X173047618Y-142895295D01*
X173047618Y-142895295D02*
X173047618Y-143038152D01*
X173047618Y-143038152D02*
X172999999Y-143133390D01*
X172999999Y-143133390D02*
X172952380Y-143181009D01*
X172952380Y-143181009D02*
X172857142Y-143228628D01*
X172857142Y-143228628D02*
X172476190Y-143228628D01*
X173476190Y-143181009D02*
X173809523Y-143181009D01*
X173952380Y-143704819D02*
X173476190Y-143704819D01*
X173476190Y-143704819D02*
X173476190Y-142704819D01*
X173476190Y-142704819D02*
X173952380Y-142704819D01*
X174333333Y-143657200D02*
X174476190Y-143704819D01*
X174476190Y-143704819D02*
X174714285Y-143704819D01*
X174714285Y-143704819D02*
X174809523Y-143657200D01*
X174809523Y-143657200D02*
X174857142Y-143609580D01*
X174857142Y-143609580D02*
X174904761Y-143514342D01*
X174904761Y-143514342D02*
X174904761Y-143419104D01*
X174904761Y-143419104D02*
X174857142Y-143323866D01*
X174857142Y-143323866D02*
X174809523Y-143276247D01*
X174809523Y-143276247D02*
X174714285Y-143228628D01*
X174714285Y-143228628D02*
X174523809Y-143181009D01*
X174523809Y-143181009D02*
X174428571Y-143133390D01*
X174428571Y-143133390D02*
X174380952Y-143085771D01*
X174380952Y-143085771D02*
X174333333Y-142990533D01*
X174333333Y-142990533D02*
X174333333Y-142895295D01*
X174333333Y-142895295D02*
X174380952Y-142800057D01*
X174380952Y-142800057D02*
X174428571Y-142752438D01*
X174428571Y-142752438D02*
X174523809Y-142704819D01*
X174523809Y-142704819D02*
X174761904Y-142704819D01*
X174761904Y-142704819D02*
X174904761Y-142752438D01*
X175333333Y-143181009D02*
X175666666Y-143181009D01*
X175809523Y-143704819D02*
X175333333Y-143704819D01*
X175333333Y-143704819D02*
X175333333Y-142704819D01*
X175333333Y-142704819D02*
X175809523Y-142704819D01*
X176095238Y-142704819D02*
X176666666Y-142704819D01*
X176380952Y-143704819D02*
X176380952Y-142704819D01*
X183857142Y-143859580D02*
X183809523Y-143907200D01*
X183809523Y-143907200D02*
X183666666Y-143954819D01*
X183666666Y-143954819D02*
X183571428Y-143954819D01*
X183571428Y-143954819D02*
X183428571Y-143907200D01*
X183428571Y-143907200D02*
X183333333Y-143811961D01*
X183333333Y-143811961D02*
X183285714Y-143716723D01*
X183285714Y-143716723D02*
X183238095Y-143526247D01*
X183238095Y-143526247D02*
X183238095Y-143383390D01*
X183238095Y-143383390D02*
X183285714Y-143192914D01*
X183285714Y-143192914D02*
X183333333Y-143097676D01*
X183333333Y-143097676D02*
X183428571Y-143002438D01*
X183428571Y-143002438D02*
X183571428Y-142954819D01*
X183571428Y-142954819D02*
X183666666Y-142954819D01*
X183666666Y-142954819D02*
X183809523Y-143002438D01*
X183809523Y-143002438D02*
X183857142Y-143050057D01*
X184476190Y-142954819D02*
X184666666Y-142954819D01*
X184666666Y-142954819D02*
X184761904Y-143002438D01*
X184761904Y-143002438D02*
X184857142Y-143097676D01*
X184857142Y-143097676D02*
X184904761Y-143288152D01*
X184904761Y-143288152D02*
X184904761Y-143621485D01*
X184904761Y-143621485D02*
X184857142Y-143811961D01*
X184857142Y-143811961D02*
X184761904Y-143907200D01*
X184761904Y-143907200D02*
X184666666Y-143954819D01*
X184666666Y-143954819D02*
X184476190Y-143954819D01*
X184476190Y-143954819D02*
X184380952Y-143907200D01*
X184380952Y-143907200D02*
X184285714Y-143811961D01*
X184285714Y-143811961D02*
X184238095Y-143621485D01*
X184238095Y-143621485D02*
X184238095Y-143288152D01*
X184238095Y-143288152D02*
X184285714Y-143097676D01*
X184285714Y-143097676D02*
X184380952Y-143002438D01*
X184380952Y-143002438D02*
X184476190Y-142954819D01*
X185809523Y-143954819D02*
X185333333Y-143954819D01*
X185333333Y-143954819D02*
X185333333Y-142954819D01*
X186333333Y-142954819D02*
X186523809Y-142954819D01*
X186523809Y-142954819D02*
X186619047Y-143002438D01*
X186619047Y-143002438D02*
X186714285Y-143097676D01*
X186714285Y-143097676D02*
X186761904Y-143288152D01*
X186761904Y-143288152D02*
X186761904Y-143621485D01*
X186761904Y-143621485D02*
X186714285Y-143811961D01*
X186714285Y-143811961D02*
X186619047Y-143907200D01*
X186619047Y-143907200D02*
X186523809Y-143954819D01*
X186523809Y-143954819D02*
X186333333Y-143954819D01*
X186333333Y-143954819D02*
X186238095Y-143907200D01*
X186238095Y-143907200D02*
X186142857Y-143811961D01*
X186142857Y-143811961D02*
X186095238Y-143621485D01*
X186095238Y-143621485D02*
X186095238Y-143288152D01*
X186095238Y-143288152D02*
X186142857Y-143097676D01*
X186142857Y-143097676D02*
X186238095Y-143002438D01*
X186238095Y-143002438D02*
X186333333Y-142954819D01*
X187761904Y-143954819D02*
X187428571Y-143478628D01*
X187190476Y-143954819D02*
X187190476Y-142954819D01*
X187190476Y-142954819D02*
X187571428Y-142954819D01*
X187571428Y-142954819D02*
X187666666Y-143002438D01*
X187666666Y-143002438D02*
X187714285Y-143050057D01*
X187714285Y-143050057D02*
X187761904Y-143145295D01*
X187761904Y-143145295D02*
X187761904Y-143288152D01*
X187761904Y-143288152D02*
X187714285Y-143383390D01*
X187714285Y-143383390D02*
X187666666Y-143431009D01*
X187666666Y-143431009D02*
X187571428Y-143478628D01*
X187571428Y-143478628D02*
X187190476Y-143478628D01*
X102655124Y-63166666D02*
X101655124Y-63404761D01*
X101655124Y-63404761D02*
X102369410Y-63595237D01*
X102369410Y-63595237D02*
X101655124Y-63785713D01*
X101655124Y-63785713D02*
X102655124Y-64023809D01*
X102131315Y-64595237D02*
X101655124Y-64595237D01*
X102655124Y-64261904D02*
X102131315Y-64595237D01*
X102131315Y-64595237D02*
X102655124Y-64928570D01*
X101940839Y-65214285D02*
X101940839Y-65690475D01*
X101655124Y-65119047D02*
X102655124Y-65452380D01*
X102655124Y-65452380D02*
X101655124Y-65785713D01*
X102655124Y-65976190D02*
X102655124Y-66547618D01*
X101655124Y-66261904D02*
X102655124Y-66261904D01*
X102655124Y-66738095D02*
X102655124Y-67309523D01*
X101655124Y-67023809D02*
X102655124Y-67023809D01*
X101940839Y-68357143D02*
X101940839Y-68833333D01*
X101655124Y-68261905D02*
X102655124Y-68595238D01*
X102655124Y-68595238D02*
X101655124Y-68928571D01*
X101655124Y-69833333D02*
X102131315Y-69500000D01*
X101655124Y-69261905D02*
X102655124Y-69261905D01*
X102655124Y-69261905D02*
X102655124Y-69642857D01*
X102655124Y-69642857D02*
X102607505Y-69738095D01*
X102607505Y-69738095D02*
X102559886Y-69785714D01*
X102559886Y-69785714D02*
X102464648Y-69833333D01*
X102464648Y-69833333D02*
X102321791Y-69833333D01*
X102321791Y-69833333D02*
X102226553Y-69785714D01*
X102226553Y-69785714D02*
X102178934Y-69738095D01*
X102178934Y-69738095D02*
X102131315Y-69642857D01*
X102131315Y-69642857D02*
X102131315Y-69261905D01*
X101655124Y-70261905D02*
X102655124Y-70261905D01*
X102655124Y-70261905D02*
X101940839Y-70595238D01*
X101940839Y-70595238D02*
X102655124Y-70928571D01*
X102655124Y-70928571D02*
X101655124Y-70928571D01*
X101702744Y-71357143D02*
X101655124Y-71500000D01*
X101655124Y-71500000D02*
X101655124Y-71738095D01*
X101655124Y-71738095D02*
X101702744Y-71833333D01*
X101702744Y-71833333D02*
X101750363Y-71880952D01*
X101750363Y-71880952D02*
X101845601Y-71928571D01*
X101845601Y-71928571D02*
X101940839Y-71928571D01*
X101940839Y-71928571D02*
X102036077Y-71880952D01*
X102036077Y-71880952D02*
X102083696Y-71833333D01*
X102083696Y-71833333D02*
X102131315Y-71738095D01*
X102131315Y-71738095D02*
X102178934Y-71547619D01*
X102178934Y-71547619D02*
X102226553Y-71452381D01*
X102226553Y-71452381D02*
X102274172Y-71404762D01*
X102274172Y-71404762D02*
X102369410Y-71357143D01*
X102369410Y-71357143D02*
X102464648Y-71357143D01*
X102464648Y-71357143D02*
X102559886Y-71404762D01*
X102559886Y-71404762D02*
X102607505Y-71452381D01*
X102607505Y-71452381D02*
X102655124Y-71547619D01*
X102655124Y-71547619D02*
X102655124Y-71785714D01*
X102655124Y-71785714D02*
X102607505Y-71928571D01*
X102655124Y-72214286D02*
X102655124Y-72785714D01*
X101655124Y-72500000D02*
X102655124Y-72500000D01*
X101655124Y-73690476D02*
X102131315Y-73357143D01*
X101655124Y-73119048D02*
X102655124Y-73119048D01*
X102655124Y-73119048D02*
X102655124Y-73500000D01*
X102655124Y-73500000D02*
X102607505Y-73595238D01*
X102607505Y-73595238D02*
X102559886Y-73642857D01*
X102559886Y-73642857D02*
X102464648Y-73690476D01*
X102464648Y-73690476D02*
X102321791Y-73690476D01*
X102321791Y-73690476D02*
X102226553Y-73642857D01*
X102226553Y-73642857D02*
X102178934Y-73595238D01*
X102178934Y-73595238D02*
X102131315Y-73500000D01*
X102131315Y-73500000D02*
X102131315Y-73119048D01*
X102655124Y-74309524D02*
X102655124Y-74500000D01*
X102655124Y-74500000D02*
X102607505Y-74595238D01*
X102607505Y-74595238D02*
X102512267Y-74690476D01*
X102512267Y-74690476D02*
X102321791Y-74738095D01*
X102321791Y-74738095D02*
X101988458Y-74738095D01*
X101988458Y-74738095D02*
X101797982Y-74690476D01*
X101797982Y-74690476D02*
X101702744Y-74595238D01*
X101702744Y-74595238D02*
X101655124Y-74500000D01*
X101655124Y-74500000D02*
X101655124Y-74309524D01*
X101655124Y-74309524D02*
X101702744Y-74214286D01*
X101702744Y-74214286D02*
X101797982Y-74119048D01*
X101797982Y-74119048D02*
X101988458Y-74071429D01*
X101988458Y-74071429D02*
X102321791Y-74071429D01*
X102321791Y-74071429D02*
X102512267Y-74119048D01*
X102512267Y-74119048D02*
X102607505Y-74214286D01*
X102607505Y-74214286D02*
X102655124Y-74309524D01*
X101655124Y-75166667D02*
X102655124Y-75166667D01*
X102655124Y-75166667D02*
X101655124Y-75738095D01*
X101655124Y-75738095D02*
X102655124Y-75738095D01*
X102607505Y-76738095D02*
X102655124Y-76642857D01*
X102655124Y-76642857D02*
X102655124Y-76500000D01*
X102655124Y-76500000D02*
X102607505Y-76357143D01*
X102607505Y-76357143D02*
X102512267Y-76261905D01*
X102512267Y-76261905D02*
X102417029Y-76214286D01*
X102417029Y-76214286D02*
X102226553Y-76166667D01*
X102226553Y-76166667D02*
X102083696Y-76166667D01*
X102083696Y-76166667D02*
X101893220Y-76214286D01*
X101893220Y-76214286D02*
X101797982Y-76261905D01*
X101797982Y-76261905D02*
X101702744Y-76357143D01*
X101702744Y-76357143D02*
X101655124Y-76500000D01*
X101655124Y-76500000D02*
X101655124Y-76595238D01*
X101655124Y-76595238D02*
X101702744Y-76738095D01*
X101702744Y-76738095D02*
X101750363Y-76785714D01*
X101750363Y-76785714D02*
X102083696Y-76785714D01*
X102083696Y-76785714D02*
X102083696Y-76595238D01*
X100568990Y-61142857D02*
X100568990Y-61476190D01*
X100045180Y-61619047D02*
X100045180Y-61142857D01*
X100045180Y-61142857D02*
X101045180Y-61142857D01*
X101045180Y-61142857D02*
X101045180Y-61619047D01*
X100045180Y-62047619D02*
X101045180Y-62047619D01*
X101045180Y-62047619D02*
X101045180Y-62285714D01*
X101045180Y-62285714D02*
X100997561Y-62428571D01*
X100997561Y-62428571D02*
X100902323Y-62523809D01*
X100902323Y-62523809D02*
X100807085Y-62571428D01*
X100807085Y-62571428D02*
X100616609Y-62619047D01*
X100616609Y-62619047D02*
X100473752Y-62619047D01*
X100473752Y-62619047D02*
X100283276Y-62571428D01*
X100283276Y-62571428D02*
X100188038Y-62523809D01*
X100188038Y-62523809D02*
X100092800Y-62428571D01*
X100092800Y-62428571D02*
X100045180Y-62285714D01*
X100045180Y-62285714D02*
X100045180Y-62047619D01*
X100568990Y-63047619D02*
X100568990Y-63380952D01*
X100045180Y-63523809D02*
X100045180Y-63047619D01*
X100045180Y-63047619D02*
X101045180Y-63047619D01*
X101045180Y-63047619D02*
X101045180Y-63523809D01*
X100092800Y-63904762D02*
X100045180Y-64047619D01*
X100045180Y-64047619D02*
X100045180Y-64285714D01*
X100045180Y-64285714D02*
X100092800Y-64380952D01*
X100092800Y-64380952D02*
X100140419Y-64428571D01*
X100140419Y-64428571D02*
X100235657Y-64476190D01*
X100235657Y-64476190D02*
X100330895Y-64476190D01*
X100330895Y-64476190D02*
X100426133Y-64428571D01*
X100426133Y-64428571D02*
X100473752Y-64380952D01*
X100473752Y-64380952D02*
X100521371Y-64285714D01*
X100521371Y-64285714D02*
X100568990Y-64095238D01*
X100568990Y-64095238D02*
X100616609Y-64000000D01*
X100616609Y-64000000D02*
X100664228Y-63952381D01*
X100664228Y-63952381D02*
X100759466Y-63904762D01*
X100759466Y-63904762D02*
X100854704Y-63904762D01*
X100854704Y-63904762D02*
X100949942Y-63952381D01*
X100949942Y-63952381D02*
X100997561Y-64000000D01*
X100997561Y-64000000D02*
X101045180Y-64095238D01*
X101045180Y-64095238D02*
X101045180Y-64333333D01*
X101045180Y-64333333D02*
X100997561Y-64476190D01*
X100949942Y-65619048D02*
X100997561Y-65666667D01*
X100997561Y-65666667D02*
X101045180Y-65761905D01*
X101045180Y-65761905D02*
X101045180Y-66000000D01*
X101045180Y-66000000D02*
X100997561Y-66095238D01*
X100997561Y-66095238D02*
X100949942Y-66142857D01*
X100949942Y-66142857D02*
X100854704Y-66190476D01*
X100854704Y-66190476D02*
X100759466Y-66190476D01*
X100759466Y-66190476D02*
X100616609Y-66142857D01*
X100616609Y-66142857D02*
X100045180Y-65571429D01*
X100045180Y-65571429D02*
X100045180Y-66190476D01*
X100045180Y-67142857D02*
X100045180Y-66571429D01*
X100045180Y-66857143D02*
X101045180Y-66857143D01*
X101045180Y-66857143D02*
X100902323Y-66761905D01*
X100902323Y-66761905D02*
X100807085Y-66666667D01*
X100807085Y-66666667D02*
X100759466Y-66571429D01*
X101045180Y-67761905D02*
X101045180Y-67857143D01*
X101045180Y-67857143D02*
X100997561Y-67952381D01*
X100997561Y-67952381D02*
X100949942Y-68000000D01*
X100949942Y-68000000D02*
X100854704Y-68047619D01*
X100854704Y-68047619D02*
X100664228Y-68095238D01*
X100664228Y-68095238D02*
X100426133Y-68095238D01*
X100426133Y-68095238D02*
X100235657Y-68047619D01*
X100235657Y-68047619D02*
X100140419Y-68000000D01*
X100140419Y-68000000D02*
X100092800Y-67952381D01*
X100092800Y-67952381D02*
X100045180Y-67857143D01*
X100045180Y-67857143D02*
X100045180Y-67761905D01*
X100045180Y-67761905D02*
X100092800Y-67666667D01*
X100092800Y-67666667D02*
X100140419Y-67619048D01*
X100140419Y-67619048D02*
X100235657Y-67571429D01*
X100235657Y-67571429D02*
X100426133Y-67523810D01*
X100426133Y-67523810D02*
X100664228Y-67523810D01*
X100664228Y-67523810D02*
X100854704Y-67571429D01*
X100854704Y-67571429D02*
X100949942Y-67619048D01*
X100949942Y-67619048D02*
X100997561Y-67666667D01*
X100997561Y-67666667D02*
X101045180Y-67761905D01*
X100092800Y-69238096D02*
X100045180Y-69380953D01*
X100045180Y-69380953D02*
X100045180Y-69619048D01*
X100045180Y-69619048D02*
X100092800Y-69714286D01*
X100092800Y-69714286D02*
X100140419Y-69761905D01*
X100140419Y-69761905D02*
X100235657Y-69809524D01*
X100235657Y-69809524D02*
X100330895Y-69809524D01*
X100330895Y-69809524D02*
X100426133Y-69761905D01*
X100426133Y-69761905D02*
X100473752Y-69714286D01*
X100473752Y-69714286D02*
X100521371Y-69619048D01*
X100521371Y-69619048D02*
X100568990Y-69428572D01*
X100568990Y-69428572D02*
X100616609Y-69333334D01*
X100616609Y-69333334D02*
X100664228Y-69285715D01*
X100664228Y-69285715D02*
X100759466Y-69238096D01*
X100759466Y-69238096D02*
X100854704Y-69238096D01*
X100854704Y-69238096D02*
X100949942Y-69285715D01*
X100949942Y-69285715D02*
X100997561Y-69333334D01*
X100997561Y-69333334D02*
X101045180Y-69428572D01*
X101045180Y-69428572D02*
X101045180Y-69666667D01*
X101045180Y-69666667D02*
X100997561Y-69809524D01*
X100045180Y-70238096D02*
X101045180Y-70238096D01*
X101045180Y-70238096D02*
X101045180Y-70619048D01*
X101045180Y-70619048D02*
X100997561Y-70714286D01*
X100997561Y-70714286D02*
X100949942Y-70761905D01*
X100949942Y-70761905D02*
X100854704Y-70809524D01*
X100854704Y-70809524D02*
X100711847Y-70809524D01*
X100711847Y-70809524D02*
X100616609Y-70761905D01*
X100616609Y-70761905D02*
X100568990Y-70714286D01*
X100568990Y-70714286D02*
X100521371Y-70619048D01*
X100521371Y-70619048D02*
X100521371Y-70238096D01*
X100045180Y-71809524D02*
X100521371Y-71476191D01*
X100045180Y-71238096D02*
X101045180Y-71238096D01*
X101045180Y-71238096D02*
X101045180Y-71619048D01*
X101045180Y-71619048D02*
X100997561Y-71714286D01*
X100997561Y-71714286D02*
X100949942Y-71761905D01*
X100949942Y-71761905D02*
X100854704Y-71809524D01*
X100854704Y-71809524D02*
X100711847Y-71809524D01*
X100711847Y-71809524D02*
X100616609Y-71761905D01*
X100616609Y-71761905D02*
X100568990Y-71714286D01*
X100568990Y-71714286D02*
X100521371Y-71619048D01*
X100521371Y-71619048D02*
X100521371Y-71238096D01*
X100045180Y-72238096D02*
X101045180Y-72238096D01*
X100045180Y-72714286D02*
X101045180Y-72714286D01*
X101045180Y-72714286D02*
X100045180Y-73285714D01*
X100045180Y-73285714D02*
X101045180Y-73285714D01*
X100997561Y-74285714D02*
X101045180Y-74190476D01*
X101045180Y-74190476D02*
X101045180Y-74047619D01*
X101045180Y-74047619D02*
X100997561Y-73904762D01*
X100997561Y-73904762D02*
X100902323Y-73809524D01*
X100902323Y-73809524D02*
X100807085Y-73761905D01*
X100807085Y-73761905D02*
X100616609Y-73714286D01*
X100616609Y-73714286D02*
X100473752Y-73714286D01*
X100473752Y-73714286D02*
X100283276Y-73761905D01*
X100283276Y-73761905D02*
X100188038Y-73809524D01*
X100188038Y-73809524D02*
X100092800Y-73904762D01*
X100092800Y-73904762D02*
X100045180Y-74047619D01*
X100045180Y-74047619D02*
X100045180Y-74142857D01*
X100045180Y-74142857D02*
X100092800Y-74285714D01*
X100092800Y-74285714D02*
X100140419Y-74333333D01*
X100140419Y-74333333D02*
X100473752Y-74333333D01*
X100473752Y-74333333D02*
X100473752Y-74142857D01*
X100949942Y-75476191D02*
X100997561Y-75523810D01*
X100997561Y-75523810D02*
X101045180Y-75619048D01*
X101045180Y-75619048D02*
X101045180Y-75857143D01*
X101045180Y-75857143D02*
X100997561Y-75952381D01*
X100997561Y-75952381D02*
X100949942Y-76000000D01*
X100949942Y-76000000D02*
X100854704Y-76047619D01*
X100854704Y-76047619D02*
X100759466Y-76047619D01*
X100759466Y-76047619D02*
X100616609Y-76000000D01*
X100616609Y-76000000D02*
X100045180Y-75428572D01*
X100045180Y-75428572D02*
X100045180Y-76047619D01*
X101045180Y-76666667D02*
X101045180Y-76761905D01*
X101045180Y-76761905D02*
X100997561Y-76857143D01*
X100997561Y-76857143D02*
X100949942Y-76904762D01*
X100949942Y-76904762D02*
X100854704Y-76952381D01*
X100854704Y-76952381D02*
X100664228Y-77000000D01*
X100664228Y-77000000D02*
X100426133Y-77000000D01*
X100426133Y-77000000D02*
X100235657Y-76952381D01*
X100235657Y-76952381D02*
X100140419Y-76904762D01*
X100140419Y-76904762D02*
X100092800Y-76857143D01*
X100092800Y-76857143D02*
X100045180Y-76761905D01*
X100045180Y-76761905D02*
X100045180Y-76666667D01*
X100045180Y-76666667D02*
X100092800Y-76571429D01*
X100092800Y-76571429D02*
X100140419Y-76523810D01*
X100140419Y-76523810D02*
X100235657Y-76476191D01*
X100235657Y-76476191D02*
X100426133Y-76428572D01*
X100426133Y-76428572D02*
X100664228Y-76428572D01*
X100664228Y-76428572D02*
X100854704Y-76476191D01*
X100854704Y-76476191D02*
X100949942Y-76523810D01*
X100949942Y-76523810D02*
X100997561Y-76571429D01*
X100997561Y-76571429D02*
X101045180Y-76666667D01*
X100949942Y-77380953D02*
X100997561Y-77428572D01*
X100997561Y-77428572D02*
X101045180Y-77523810D01*
X101045180Y-77523810D02*
X101045180Y-77761905D01*
X101045180Y-77761905D02*
X100997561Y-77857143D01*
X100997561Y-77857143D02*
X100949942Y-77904762D01*
X100949942Y-77904762D02*
X100854704Y-77952381D01*
X100854704Y-77952381D02*
X100759466Y-77952381D01*
X100759466Y-77952381D02*
X100616609Y-77904762D01*
X100616609Y-77904762D02*
X100045180Y-77333334D01*
X100045180Y-77333334D02*
X100045180Y-77952381D01*
X101045180Y-78809524D02*
X101045180Y-78619048D01*
X101045180Y-78619048D02*
X100997561Y-78523810D01*
X100997561Y-78523810D02*
X100949942Y-78476191D01*
X100949942Y-78476191D02*
X100807085Y-78380953D01*
X100807085Y-78380953D02*
X100616609Y-78333334D01*
X100616609Y-78333334D02*
X100235657Y-78333334D01*
X100235657Y-78333334D02*
X100140419Y-78380953D01*
X100140419Y-78380953D02*
X100092800Y-78428572D01*
X100092800Y-78428572D02*
X100045180Y-78523810D01*
X100045180Y-78523810D02*
X100045180Y-78714286D01*
X100045180Y-78714286D02*
X100092800Y-78809524D01*
X100092800Y-78809524D02*
X100140419Y-78857143D01*
X100140419Y-78857143D02*
X100235657Y-78904762D01*
X100235657Y-78904762D02*
X100473752Y-78904762D01*
X100473752Y-78904762D02*
X100568990Y-78857143D01*
X100568990Y-78857143D02*
X100616609Y-78809524D01*
X100616609Y-78809524D02*
X100664228Y-78714286D01*
X100664228Y-78714286D02*
X100664228Y-78523810D01*
X100664228Y-78523810D02*
X100616609Y-78428572D01*
X100616609Y-78428572D02*
X100568990Y-78380953D01*
X100568990Y-78380953D02*
X100473752Y-78333334D01*
X98959046Y-64357142D02*
X98959046Y-64690475D01*
X98435236Y-64833332D02*
X98435236Y-64357142D01*
X98435236Y-64357142D02*
X99435236Y-64357142D01*
X99435236Y-64357142D02*
X99435236Y-64833332D01*
X99435236Y-65119047D02*
X99435236Y-65690475D01*
X98435236Y-65404761D02*
X99435236Y-65404761D01*
X98530475Y-66595237D02*
X98482856Y-66547618D01*
X98482856Y-66547618D02*
X98435236Y-66404761D01*
X98435236Y-66404761D02*
X98435236Y-66309523D01*
X98435236Y-66309523D02*
X98482856Y-66166666D01*
X98482856Y-66166666D02*
X98578094Y-66071428D01*
X98578094Y-66071428D02*
X98673332Y-66023809D01*
X98673332Y-66023809D02*
X98863808Y-65976190D01*
X98863808Y-65976190D02*
X99006665Y-65976190D01*
X99006665Y-65976190D02*
X99197141Y-66023809D01*
X99197141Y-66023809D02*
X99292379Y-66071428D01*
X99292379Y-66071428D02*
X99387617Y-66166666D01*
X99387617Y-66166666D02*
X99435236Y-66309523D01*
X99435236Y-66309523D02*
X99435236Y-66404761D01*
X99435236Y-66404761D02*
X99387617Y-66547618D01*
X99387617Y-66547618D02*
X99339998Y-66595237D01*
X98435236Y-67023809D02*
X99435236Y-67023809D01*
X98959046Y-67023809D02*
X98959046Y-67595237D01*
X98435236Y-67595237D02*
X99435236Y-67595237D01*
X98720951Y-68785714D02*
X98720951Y-69261904D01*
X98435236Y-68690476D02*
X99435236Y-69023809D01*
X99435236Y-69023809D02*
X98435236Y-69357142D01*
X98482856Y-70404762D02*
X98435236Y-70547619D01*
X98435236Y-70547619D02*
X98435236Y-70785714D01*
X98435236Y-70785714D02*
X98482856Y-70880952D01*
X98482856Y-70880952D02*
X98530475Y-70928571D01*
X98530475Y-70928571D02*
X98625713Y-70976190D01*
X98625713Y-70976190D02*
X98720951Y-70976190D01*
X98720951Y-70976190D02*
X98816189Y-70928571D01*
X98816189Y-70928571D02*
X98863808Y-70880952D01*
X98863808Y-70880952D02*
X98911427Y-70785714D01*
X98911427Y-70785714D02*
X98959046Y-70595238D01*
X98959046Y-70595238D02*
X99006665Y-70500000D01*
X99006665Y-70500000D02*
X99054284Y-70452381D01*
X99054284Y-70452381D02*
X99149522Y-70404762D01*
X99149522Y-70404762D02*
X99244760Y-70404762D01*
X99244760Y-70404762D02*
X99339998Y-70452381D01*
X99339998Y-70452381D02*
X99387617Y-70500000D01*
X99387617Y-70500000D02*
X99435236Y-70595238D01*
X99435236Y-70595238D02*
X99435236Y-70833333D01*
X99435236Y-70833333D02*
X99387617Y-70976190D01*
X98435236Y-71404762D02*
X99435236Y-71404762D01*
X98435236Y-71976190D02*
X99006665Y-71547619D01*
X99435236Y-71976190D02*
X98863808Y-71404762D01*
X98959046Y-72404762D02*
X98959046Y-72738095D01*
X98435236Y-72880952D02*
X98435236Y-72404762D01*
X98435236Y-72404762D02*
X99435236Y-72404762D01*
X99435236Y-72404762D02*
X99435236Y-72880952D01*
X99435236Y-73166667D02*
X99435236Y-73738095D01*
X98435236Y-73452381D02*
X99435236Y-73452381D01*
X98530475Y-74642857D02*
X98482856Y-74595238D01*
X98482856Y-74595238D02*
X98435236Y-74452381D01*
X98435236Y-74452381D02*
X98435236Y-74357143D01*
X98435236Y-74357143D02*
X98482856Y-74214286D01*
X98482856Y-74214286D02*
X98578094Y-74119048D01*
X98578094Y-74119048D02*
X98673332Y-74071429D01*
X98673332Y-74071429D02*
X98863808Y-74023810D01*
X98863808Y-74023810D02*
X99006665Y-74023810D01*
X99006665Y-74023810D02*
X99197141Y-74071429D01*
X99197141Y-74071429D02*
X99292379Y-74119048D01*
X99292379Y-74119048D02*
X99387617Y-74214286D01*
X99387617Y-74214286D02*
X99435236Y-74357143D01*
X99435236Y-74357143D02*
X99435236Y-74452381D01*
X99435236Y-74452381D02*
X99387617Y-74595238D01*
X99387617Y-74595238D02*
X99339998Y-74642857D01*
X98435236Y-75071429D02*
X99435236Y-75071429D01*
X98959046Y-75071429D02*
X98959046Y-75642857D01*
X98435236Y-75642857D02*
X99435236Y-75642857D01*
D11*
X187303884Y-93076466D02*
X188065789Y-93076466D01*
X187684836Y-93457419D02*
X187684836Y-92695514D01*
X187359211Y-98286466D02*
X188121116Y-98286466D01*
X187740163Y-98667419D02*
X187740163Y-97905514D01*
D10*
X98119048Y-85454819D02*
X98119048Y-86264342D01*
X98119048Y-86264342D02*
X98166667Y-86359580D01*
X98166667Y-86359580D02*
X98214286Y-86407200D01*
X98214286Y-86407200D02*
X98309524Y-86454819D01*
X98309524Y-86454819D02*
X98500000Y-86454819D01*
X98500000Y-86454819D02*
X98595238Y-86407200D01*
X98595238Y-86407200D02*
X98642857Y-86359580D01*
X98642857Y-86359580D02*
X98690476Y-86264342D01*
X98690476Y-86264342D02*
X98690476Y-85454819D01*
X99119048Y-86407200D02*
X99261905Y-86454819D01*
X99261905Y-86454819D02*
X99500000Y-86454819D01*
X99500000Y-86454819D02*
X99595238Y-86407200D01*
X99595238Y-86407200D02*
X99642857Y-86359580D01*
X99642857Y-86359580D02*
X99690476Y-86264342D01*
X99690476Y-86264342D02*
X99690476Y-86169104D01*
X99690476Y-86169104D02*
X99642857Y-86073866D01*
X99642857Y-86073866D02*
X99595238Y-86026247D01*
X99595238Y-86026247D02*
X99500000Y-85978628D01*
X99500000Y-85978628D02*
X99309524Y-85931009D01*
X99309524Y-85931009D02*
X99214286Y-85883390D01*
X99214286Y-85883390D02*
X99166667Y-85835771D01*
X99166667Y-85835771D02*
X99119048Y-85740533D01*
X99119048Y-85740533D02*
X99119048Y-85645295D01*
X99119048Y-85645295D02*
X99166667Y-85550057D01*
X99166667Y-85550057D02*
X99214286Y-85502438D01*
X99214286Y-85502438D02*
X99309524Y-85454819D01*
X99309524Y-85454819D02*
X99547619Y-85454819D01*
X99547619Y-85454819D02*
X99690476Y-85502438D01*
X100452381Y-85931009D02*
X100595238Y-85978628D01*
X100595238Y-85978628D02*
X100642857Y-86026247D01*
X100642857Y-86026247D02*
X100690476Y-86121485D01*
X100690476Y-86121485D02*
X100690476Y-86264342D01*
X100690476Y-86264342D02*
X100642857Y-86359580D01*
X100642857Y-86359580D02*
X100595238Y-86407200D01*
X100595238Y-86407200D02*
X100500000Y-86454819D01*
X100500000Y-86454819D02*
X100119048Y-86454819D01*
X100119048Y-86454819D02*
X100119048Y-85454819D01*
X100119048Y-85454819D02*
X100452381Y-85454819D01*
X100452381Y-85454819D02*
X100547619Y-85502438D01*
X100547619Y-85502438D02*
X100595238Y-85550057D01*
X100595238Y-85550057D02*
X100642857Y-85645295D01*
X100642857Y-85645295D02*
X100642857Y-85740533D01*
X100642857Y-85740533D02*
X100595238Y-85835771D01*
X100595238Y-85835771D02*
X100547619Y-85883390D01*
X100547619Y-85883390D02*
X100452381Y-85931009D01*
X100452381Y-85931009D02*
X100119048Y-85931009D01*
X101119048Y-86073866D02*
X101880953Y-86073866D01*
X102928571Y-86359580D02*
X102880952Y-86407200D01*
X102880952Y-86407200D02*
X102738095Y-86454819D01*
X102738095Y-86454819D02*
X102642857Y-86454819D01*
X102642857Y-86454819D02*
X102500000Y-86407200D01*
X102500000Y-86407200D02*
X102404762Y-86311961D01*
X102404762Y-86311961D02*
X102357143Y-86216723D01*
X102357143Y-86216723D02*
X102309524Y-86026247D01*
X102309524Y-86026247D02*
X102309524Y-85883390D01*
X102309524Y-85883390D02*
X102357143Y-85692914D01*
X102357143Y-85692914D02*
X102404762Y-85597676D01*
X102404762Y-85597676D02*
X102500000Y-85502438D01*
X102500000Y-85502438D02*
X102642857Y-85454819D01*
X102642857Y-85454819D02*
X102738095Y-85454819D01*
X102738095Y-85454819D02*
X102880952Y-85502438D01*
X102880952Y-85502438D02*
X102928571Y-85550057D01*
%TO.C,U1*%
D12*
X106870000Y-59500000D02*
X179130000Y-59500000D01*
X106870000Y-102500000D02*
X106870000Y-59500000D01*
X106870000Y-102500000D02*
X179130000Y-102500000D01*
X179130000Y-102500000D02*
X179130000Y-59500000D01*
D13*
X179160000Y-59500000D02*
G75*
G02*
X179100000Y-59500000I-30000J0D01*
G01*
X179100000Y-59500000D02*
G75*
G02*
X179160000Y-59500000I30000J0D01*
G01*
%TO.C,LED2*%
D10*
X188665000Y-93220000D02*
X188665000Y-93520000D01*
X188825000Y-92780000D02*
X188825000Y-93220000D01*
X188825000Y-93220000D02*
X188665000Y-93220000D01*
X190475000Y-94100000D02*
X189875000Y-94100000D01*
X191525000Y-92780000D02*
X188825000Y-92780000D01*
X191525000Y-93240000D02*
X191525000Y-92780000D01*
X191695000Y-93240000D02*
X191525000Y-93240000D01*
X191695000Y-93500000D02*
X191695000Y-93240000D01*
D13*
X188705000Y-94100000D02*
G75*
G02*
X188645000Y-94100000I-30000J0D01*
G01*
X188645000Y-94100000D02*
G75*
G02*
X188705000Y-94100000I30000J0D01*
G01*
D14*
G36*
X190655009Y-93449887D02*
G01*
X189895016Y-93829871D01*
X189895016Y-93089893D01*
X190655009Y-93449887D01*
G37*
%TO.C,SW1*%
D12*
X172100000Y-139750000D02*
X172100000Y-136760000D01*
X172100000Y-140900000D02*
X172100000Y-140750000D01*
X172200000Y-140900000D02*
X172100000Y-140900000D01*
X173220000Y-136760000D02*
X173220000Y-139240000D01*
X174200000Y-140900000D02*
X173800000Y-140900000D01*
X174220000Y-135080000D02*
X174030000Y-135080000D01*
X174270000Y-136480000D02*
X174030000Y-136480000D01*
X174270000Y-139520000D02*
X173730000Y-139520000D01*
X175730000Y-136480000D02*
X175970000Y-136480000D01*
X175970000Y-135080000D02*
X175780000Y-135080000D01*
X175970000Y-135080000D02*
X176220000Y-135080000D01*
X175970000Y-136480000D02*
X176270000Y-136480000D01*
X176200000Y-140900000D02*
X175800000Y-140900000D01*
X176270000Y-139520000D02*
X175730000Y-139520000D01*
X176780000Y-136760000D02*
X176780000Y-139240000D01*
X177780000Y-135080000D02*
X177920000Y-135080000D01*
X177900000Y-136250000D02*
X177900000Y-139750000D01*
X177900000Y-140750000D02*
X177900000Y-140900000D01*
X177900000Y-140900000D02*
X177800000Y-140900000D01*
X177920000Y-135080000D02*
X177920000Y-135290000D01*
X177920000Y-136210000D02*
X177920000Y-136790000D01*
D13*
X172130000Y-135100000D02*
G75*
G02*
X172070000Y-135100000I-30000J0D01*
G01*
X172070000Y-135100000D02*
G75*
G02*
X172130000Y-135100000I30000J0D01*
G01*
%TO.C,LED3*%
D10*
X188665000Y-97720000D02*
X188665000Y-98020000D01*
X188825000Y-97280000D02*
X188825000Y-97720000D01*
X188825000Y-97720000D02*
X188665000Y-97720000D01*
X190475000Y-98600000D02*
X189875000Y-98600000D01*
X191525000Y-97280000D02*
X188825000Y-97280000D01*
X191525000Y-97740000D02*
X191525000Y-97280000D01*
X191695000Y-97740000D02*
X191525000Y-97740000D01*
X191695000Y-98000000D02*
X191695000Y-97740000D01*
D13*
X191705000Y-97280000D02*
G75*
G02*
X191645000Y-97280000I-30000J0D01*
G01*
X191645000Y-97280000D02*
G75*
G02*
X191705000Y-97280000I30000J0D01*
G01*
D14*
G36*
X190655009Y-97950090D02*
G01*
X189895016Y-98330074D01*
X189895016Y-97590096D01*
X190655009Y-97950090D01*
G37*
%TO.C,LED1*%
D10*
X188825000Y-101020000D02*
X191525000Y-101020000D01*
X188825000Y-101040000D02*
X188825000Y-101020000D01*
D14*
X188825000Y-101960000D02*
X188824999Y-101960000D01*
X188824999Y-101960000D01*
X188824999Y-101960000D01*
X188824999Y-101960000D01*
X188824999Y-101960000D01*
X188824999Y-101960000D01*
X188824999Y-101960000D01*
X188824999Y-101959999D01*
X188824999Y-101959999D01*
X188824999Y-101959999D01*
X188824999Y-101959999D01*
X188824999Y-101959999D01*
X188825000Y-101959999D01*
X188825000Y-101959999D01*
X188825000Y-101959999D01*
X188825000Y-101959999D01*
X188825000Y-101959999D01*
X188825000Y-101959999D01*
X188825000Y-101959999D01*
X188825000Y-101959999D01*
X188825000Y-101959999D01*
X188825000Y-101959999D01*
X188825000Y-101959999D01*
X188825000Y-101959999D01*
X188825001Y-101959999D01*
X188825001Y-101959999D01*
X188825001Y-101959999D01*
X188825001Y-101959999D01*
X188825001Y-101959999D01*
X188825001Y-101959999D01*
X188825001Y-101960000D01*
X188825001Y-101960000D01*
X188825001Y-101960000D01*
X188825001Y-101960000D01*
X188825001Y-101960000D01*
X188825001Y-101960000D01*
X188825001Y-101960000D01*
X188825000Y-101960000D01*
X188825000Y-101960000D02*
X188825001Y-101960000D01*
X188825001Y-101960000D01*
X188825001Y-101960000D01*
X188825001Y-101960000D01*
X188825001Y-101960000D01*
X188825001Y-101960000D01*
X188825001Y-101960001D01*
X188825001Y-101960001D01*
X188825001Y-101960001D01*
X188825001Y-101960001D01*
X188825001Y-101960001D01*
X188825001Y-101960001D01*
X188825001Y-101960001D01*
X188825000Y-101960001D01*
X188825000Y-101960001D01*
X188825000Y-101960001D01*
X188825000Y-101960001D01*
X188825000Y-101960001D01*
X188825000Y-101960001D01*
X188825000Y-101960001D01*
X188825000Y-101960001D01*
X188825000Y-101960001D01*
X188825000Y-101960001D01*
X188825000Y-101960001D01*
X188825000Y-101960001D01*
X188824999Y-101960001D01*
X188824999Y-101960001D01*
X188824999Y-101960001D01*
X188824999Y-101960001D01*
X188824999Y-101960001D01*
X188824999Y-101960001D01*
X188824999Y-101960000D01*
X188824999Y-101960000D01*
X188824999Y-101960000D01*
X188824999Y-101960000D01*
X188824999Y-101960000D01*
X188824999Y-101960000D01*
X188825000Y-101960000D01*
D10*
X188825000Y-101960000D02*
X189205000Y-102340000D01*
X189205000Y-102340000D02*
X191525000Y-102340000D01*
X191525000Y-101020000D02*
X191525000Y-101040000D01*
X191525000Y-102340000D02*
X191525000Y-101960000D01*
D13*
X191705000Y-101020000D02*
G75*
G02*
X191645000Y-101020000I-30000J0D01*
G01*
X191645000Y-101020000D02*
G75*
G02*
X191705000Y-101020000I30000J0D01*
G01*
D14*
G36*
X189125066Y-102500023D02*
G01*
X188585112Y-102500049D01*
X188585062Y-101930047D01*
X189125066Y-102500023D01*
G37*
%TO.C,SW2*%
D12*
X182100000Y-140250000D02*
X182100000Y-137260000D01*
X182100000Y-141400000D02*
X182100000Y-141250000D01*
X182200000Y-141400000D02*
X182100000Y-141400000D01*
X183220000Y-137260000D02*
X183220000Y-139740000D01*
X184200000Y-141400000D02*
X183800000Y-141400000D01*
X184220000Y-135580000D02*
X184030000Y-135580000D01*
X184270000Y-136980000D02*
X184030000Y-136980000D01*
X184270000Y-140020000D02*
X183730000Y-140020000D01*
X185730000Y-136980000D02*
X185970000Y-136980000D01*
X185970000Y-135580000D02*
X185780000Y-135580000D01*
X185970000Y-135580000D02*
X186220000Y-135580000D01*
X185970000Y-136980000D02*
X186270000Y-136980000D01*
X186200000Y-141400000D02*
X185800000Y-141400000D01*
X186270000Y-140020000D02*
X185730000Y-140020000D01*
X186780000Y-137260000D02*
X186780000Y-139740000D01*
X187780000Y-135580000D02*
X187920000Y-135580000D01*
X187900000Y-136750000D02*
X187900000Y-140250000D01*
X187900000Y-141250000D02*
X187900000Y-141400000D01*
X187900000Y-141400000D02*
X187800000Y-141400000D01*
X187920000Y-135580000D02*
X187920000Y-135790000D01*
X187920000Y-136710000D02*
X187920000Y-137290000D01*
D13*
X182130000Y-135600000D02*
G75*
G02*
X182070000Y-135600000I-30000J0D01*
G01*
X182070000Y-135600000D02*
G75*
G02*
X182130000Y-135600000I30000J0D01*
G01*
%TO.C,USB-C*%
D12*
X96530000Y-89000000D02*
X98140000Y-89000000D01*
X96530000Y-98000000D02*
X96530000Y-89000000D01*
X96670000Y-98070000D02*
X98150000Y-98070000D01*
X100100000Y-98070000D02*
X102100000Y-98070000D01*
X100110000Y-89000000D02*
X102090000Y-89000000D01*
D13*
X104180000Y-89050000D02*
G75*
G02*
X104120000Y-89050000I-30000J0D01*
G01*
X104120000Y-89050000D02*
G75*
G02*
X104180000Y-89050000I30000J0D01*
G01*
%TO.C,R2*%
D12*
X161600000Y-105120000D02*
X161600000Y-104460000D01*
X161600000Y-108880000D02*
X161600000Y-112900000D01*
X161600000Y-112900000D02*
X170580000Y-112900000D01*
X163120000Y-107750000D02*
X169880000Y-107750000D01*
X163500000Y-112900000D02*
X163500000Y-127000000D01*
X163500000Y-117900000D02*
X169500000Y-117900000D01*
X163500000Y-127000000D02*
X169500000Y-127000000D01*
X164250000Y-117900000D02*
X164250000Y-127000000D01*
X168750000Y-117900000D02*
X168750000Y-127000000D01*
X169500000Y-112900000D02*
X169500000Y-127000000D01*
X170580000Y-112900000D02*
X171400000Y-112900000D01*
X171400000Y-105120000D02*
X171400000Y-104450000D01*
X171400000Y-108880000D02*
X171400000Y-112900000D01*
D13*
X161380000Y-126050000D02*
G75*
G02*
X161320000Y-126050000I-30000J0D01*
G01*
X161320000Y-126050000D02*
G75*
G02*
X161380000Y-126050000I30000J0D01*
G01*
%TO.C,R1*%
D12*
X99100000Y-104820000D02*
X99100000Y-104160000D01*
X99100000Y-108580000D02*
X99100000Y-112600000D01*
X99100000Y-112600000D02*
X108080000Y-112600000D01*
X100620000Y-107450000D02*
X107380000Y-107450000D01*
X101000000Y-112600000D02*
X101000000Y-126700000D01*
X101000000Y-117600000D02*
X107000000Y-117600000D01*
X101000000Y-126700000D02*
X107000000Y-126700000D01*
X101750000Y-117600000D02*
X101750000Y-126700000D01*
X106250000Y-117600000D02*
X106250000Y-126700000D01*
X107000000Y-112600000D02*
X107000000Y-126700000D01*
X108080000Y-112600000D02*
X108900000Y-112600000D01*
X108900000Y-104820000D02*
X108900000Y-104150000D01*
X108900000Y-108580000D02*
X108900000Y-112600000D01*
D13*
X98880000Y-125750000D02*
G75*
G02*
X98820000Y-125750000I-30000J0D01*
G01*
X98820000Y-125750000D02*
G75*
G02*
X98880000Y-125750000I30000J0D01*
G01*
%TD*%
M02*
