M48
; DRILL file KiCad 10.0.1 date 2026-05-05T14:15:25
; FORMAT={-:-/ absolute / metric / decimal}
; #@! TF.CreationDate,2026-05-05T14:15:25-05:00
; #@! TF.GenerationSoftware,Kicad,Pcbnew,10.0.1
; #@! TF.FileFunction,Plated,1,2,PTH
FMAT,2
METRIC
; #@! TA.AperFunction,Plated,PTH,ViaDrill
T1C0.305
; #@! TA.AperFunction,Plated,PTH,ComponentDrill
T2C0.600
; #@! TA.AperFunction,Plated,PTH,ComponentDrill
T3C0.700
; #@! TA.AperFunction,Plated,PTH,ComponentDrill
T4C1.000
; #@! TA.AperFunction,Plated,PTH,ComponentDrill
T5C1.000
; #@! TA.AperFunction,Plated,PTH,ComponentDrill
T6C1.100
; #@! TA.AperFunction,Plated,PTH,ComponentDrill
T7C2.000
; #@! TA.AperFunction,Plated,PTH,ComponentDrill
T8C3.100
%
G90
G05
T1
X102.822Y-92.0
X102.824Y-95.207
X139.702Y-131.594
X174.842Y-111.349
X176.993Y-111.086
X180.041Y-93.978
X182.595Y-110.605
X184.787Y-97.956
T3
X102.8Y-90.61
X102.8Y-96.39
T4
X108.87Y-69.57
X108.87Y-72.11
X108.87Y-74.65
X108.87Y-77.19
X108.87Y-79.73
X108.87Y-82.27
X108.87Y-84.81
X108.87Y-87.35
X108.87Y-89.89
X108.87Y-92.43
X177.13Y-69.57
X177.13Y-72.11
X177.13Y-74.65
X177.13Y-77.19
X177.13Y-79.73
X177.13Y-82.27
X177.13Y-84.81
X177.13Y-87.35
X177.13Y-89.89
X177.13Y-92.43
T5
X113.72Y-112.1
X113.72Y-114.64
X113.72Y-137.5
X113.72Y-140.04
X116.26Y-112.1
X116.26Y-114.64
X116.26Y-137.5
X116.26Y-140.04
X118.8Y-112.1
X118.8Y-114.64
X118.8Y-137.5
X118.8Y-140.04
X121.34Y-112.1
X121.34Y-114.64
X121.34Y-137.5
X121.34Y-140.04
X123.88Y-112.1
X123.88Y-114.64
X123.88Y-137.5
X123.88Y-140.04
X126.42Y-112.1
X126.42Y-114.64
X126.42Y-137.5
X126.42Y-140.04
X128.96Y-112.1
X128.96Y-114.64
X128.96Y-137.5
X128.96Y-140.04
X131.5Y-112.1
X131.5Y-114.64
X131.5Y-137.5
X131.5Y-140.04
X134.04Y-112.1
X134.04Y-114.64
X134.04Y-137.5
X134.04Y-140.04
X136.58Y-112.1
X136.58Y-114.64
X136.58Y-137.5
X136.58Y-140.04
X139.12Y-112.1
X139.12Y-114.64
X139.12Y-137.5
X139.12Y-140.04
X141.66Y-112.1
X141.66Y-114.64
X141.66Y-137.5
X141.66Y-140.04
X144.2Y-112.1
X144.2Y-114.64
X144.2Y-137.5
X144.2Y-140.04
X146.74Y-112.1
X146.74Y-114.64
X146.74Y-137.5
X146.74Y-140.04
X149.28Y-112.1
X149.28Y-114.64
X149.28Y-137.5
X149.28Y-140.04
X151.82Y-112.1
X151.82Y-114.64
X151.82Y-137.5
X151.82Y-140.04
X154.36Y-112.1
X154.36Y-114.64
X154.36Y-137.5
X154.36Y-140.04
X156.9Y-112.1
X156.9Y-114.64
X156.9Y-137.5
X156.9Y-140.04
T6
X101.46Y-110.0
X104.0Y-110.0
X106.54Y-110.0
X163.96Y-110.3
X166.5Y-110.3
X169.04Y-110.3
X173.0Y-135.75
X173.0Y-140.25
X175.0Y-135.75
X175.0Y-140.25
X177.0Y-135.75
X177.0Y-140.25
X183.0Y-136.25
X183.0Y-140.75
X185.0Y-136.25
X185.0Y-140.75
X187.0Y-136.25
X187.0Y-140.75
T8
X109.87Y-62.5
X109.87Y-99.5
X176.13Y-62.5
X176.13Y-99.5
T2
G00X99.42Y-89.18
M15
G01X98.82Y-89.18
M16
G05
G00X99.42Y-97.82
M15
G01X98.82Y-97.82
M16
G05
G00X103.78Y-89.18
M15
G01X102.88Y-89.18
M16
G05
G00X103.78Y-97.82
M15
G01X102.88Y-97.82
M16
G05
T7
G00X99.0Y-106.55
M15
G01X99.0Y-106.85
M16
G05
G00X109.0Y-106.55
M15
G01X109.0Y-106.85
M16
G05
G00X161.5Y-106.85
M15
G01X161.5Y-107.15
M16
G05
G00X171.5Y-106.85
M15
G01X171.5Y-107.15
M16
G05
M30
